# xmcd CD database file
# Copyright (C) 1993-1998 Ti Kan
#
# Track frame offsets:
#	182
#	10500
#	22135
#	33107
#	44782
#	57020
#	67802
#	77237
#	93170
#	105480
#	117245
#	131370
#	141480
#	151835
#	165052
#	174965
#	186680
#	196617
#	207920
#	218415
#
# Disc length: 3051 seconds
#
# Revision: 0
# Processed by: cddbd v1.5.1PL2 Copyright (c) Steve Scherf et al.
# Submitted via: CDmax 1.5.3
#
DISCID=fb0be914
DTITLE=Various Artist - Rhythm' n' Blues Gems [CD5]
DYEAR=1985
DGENRE=Blues
TTITLE0=Willie Harper/New kind Of Love
TTITLE1=Lee Dorsey/Lottie Mo
TTITLE2=The Capitols/Cool Jerk
TTITLE3=Chuck Berry/Too Pooped To Pop
TTITLE4=Buster Brown/Fannie Mae Is Back
TTITLE5=Ernie K-Doe/Make You Love Me
TTITLE6=Memphis Slim/Rockin' The House
TTITLE7=Big Joe Turner/I've Been Up The Mountain
TTITLE8=Jessie Hill/Ogsey Moo
TTITLE9=Rosco Gordon/No Moore Doggin'
TTITLE10=Etta James/(I Just Wanna Make) Love To You
TTITLE11=The Olympics/Dancin' Holidays
TTITLE12=The "5" Royales/They Don't Know
TTITLE13=Larry Birdsong/I'll Run My Business
TTITLE14=Byddy Guy/Slop Around
TTITLE15=Jimmy McCracklin'/Get Tough
TTITLE16=Fats Domino/Wigs
TTITLE17=Clifton Chernier/Baby Please
TTITLE18=James "Sugar Boy" Crawford/Honey
TTITLE19=Jerry Morriss/Clema
EXTD=
EXTT0=
EXTT1=
EXTT2=
EXTT3=
EXTT4=
EXTT5=
EXTT6=
EXTT7=
EXTT8=
EXTT9=
EXTT10=
EXTT11=
EXTT12=
EXTT13=
EXTT14=
EXTT15=
EXTT16=
EXTT17=
EXTT18=
EXTT19=
PLAYORDER=
